<svg xmlns="http://www.w3.org/2000/svg" xmlns:xlink="http://www.w3.org/1999/xlink" viewBox="0 0 32 32" width="31" height="31" style="" filter="none">
    
    <g>
    <path d="M30.944 12.352h-16.128c-0.576 0-1.344-0.384-1.696-0.864 0 0-2.944-3.936-6.048-3.936-3.904 0-7.072 3.168-7.072 7.104 0.001 3.905 3.167 7.071 7.072 7.072h0c3.104 0 6.048-3.936 6.048-3.936 0.352-0.48 1.12-0.832 1.696-0.832h3.776v-0.032h3.936v1.632h-2.976v5.856h2.464v-2.976h1.696v1.888h2.496v-1.888h1.408v2.976h2.624v-5.856h-2.976v-1.632h4.736v-3.52c0-0.576-0.48-1.056-1.056-1.056zM7.072 18.208c-1.984 0-3.584-1.6-3.584-3.552 0-1.984 1.6-3.584 3.584-3.584s3.584 1.6 3.584 3.584c0 1.952-1.6 3.552-3.584 3.552z" fill="rgba(16,16,16,1)"></path>
    </g>
  </svg>